 <svg  version="1.0" xmlns="http://www.w3.org/2000/svg"  width="200.000000pt" height="200.000000pt" viewBox="0 0 200.000000 200.000000"  preserveAspectRatio="xMidYMid meet">  <g transform="translate(0.000000,200.000000) scale(0.100000,-0.100000)" fill="#000000" stroke="none"> <path d="M913 1763 c-12 -2 -36 -20 -54 -40 -27 -32 -31 -42 -26 -80 5 -50 28 -80 74 -99 70 -30 153 28 153 106 0 72 -74 129 -147 113z m71 -33 c23 -8 56 -55 56 -80 0 -5 -11 -10 -24 -10 -13 0 -52 -9 -86 -19 -53 -17 -62 -17 -67 -5 -8 22 1 27 85 51 42 11 67 22 55 22 -11 1 -50 -8 -84 -19 -35 -10 -64 -18 -65 -17 -1 1 2 12 7 24 5 15 22 26 51 33 57 15 66 18 48 19 -8 1 -31 -3 -50 -9 -32 -9 -33 -8 -16 5 23 17 54 19 90 5z m46 -110 c0 -15 -53 -60 -70 -59 -10 0 -9 3 5 9 11 5 14 9 7 9 -7 1 -22 -4 -33 -9 -19 -11 -59 2 -59 18 0 8 101 39 133 41 9 1 17 -3 17 -9z"/> <path d="M1274 1519 c-90 -26 -87 -163 4 -189 117 -32 179 139 68 185 -20 8 -37 15 -38 14 -2 0 -17 -5 -34 -10z m44 -63 c33 -70 37 -93 15 -100 -48 -15 -103 22 -103 70 0 36 13 29 38 -18 12 -24 19 -32 16 -18 -4 14 -15 37 -25 52 -19 26 -19 27 3 42 31 22 33 21 56 -28z m37 19 c25 -24 32 -59 17 -82 -5 -8 -17 10 -34 47 -28 64 -22 75 17 35z"/> <path d="M835 1481 c-83 -39 -124 -108 -128 -221 -2 -58 -5 -69 -17 -64 -98 40 -220 -21 -251 -124 -6 -22 -10 -80 -8 -133 4 -84 7 -100 32 -137 48 -73 158 -107 232 -71 l30 14 5 199 c4 149 8 196 16 185 35 -43 39 -68 44 -239 l5 -175 150 0 150 0 5 215 c5 203 6 217 28 253 13 20 27 37 30 37 4 0 6 -106 4 -235 l-2 -236 37 -16 c23 -10 67 -17 113 -17 85 -1 139 21 183 74 41 48 49 92 45 237 -3 127 -4 133 -33 174 -17 24 -50 53 -75 66 -38 20 -57 23 -125 20 -44 -1 -88 -6 -97 -11 -14 -6 -18 -4 -18 10 0 73 -62 162 -135 195 -54 25 -166 25 -220 0z m104 -4 c-25 -20 -178 -93 -168 -80 33 42 106 82 148 83 13 0 22 -2 20 -3z m82 -8 c75 -25 127 -87 143 -168 5 -29 1 -39 -34 -79 -26 -29 -42 -59 -46 -83 -4 -21 -9 -37 -13 -35 -3 2 -5 -79 -3 -180 l4 -184 -56 0 c-55 0 -56 1 -76 39 -11 22 -29 75 -41 118 -22 79 -51 147 -68 158 -6 3 -24 27 -42 53 -17 26 -39 51 -47 56 -14 8 -14 10 3 17 37 14 87 9 126 -13 51 -28 82 -91 110 -223 22 -104 48 -177 69 -190 6 -4 2 12 -10 35 -12 24 -33 94 -46 157 -27 129 -49 179 -94 217 -39 33 -69 40 -126 32 -45 -6 -45 -5 -42 21 3 24 12 30 68 50 111 38 179 12 229 -89 17 -34 31 -55 31 -47 0 33 -51 115 -87 139 -49 34 -138 34 -201 1 l-43 -22 3 26 c2 21 17 32 88 65 142 66 231 50 290 -53 30 -52 43 -51 16 2 -22 42 -80 89 -126 101 -54 15 -100 5 -193 -42 -75 -37 -78 -38 -72 -16 4 13 10 26 14 29 10 10 220 119 230 119 4 0 23 -5 42 -11z m289 -211 c0 -7 5 -74 10 -148 12 -166 33 -267 66 -316 14 -20 23 -39 20 -41 -3 -3 -33 -7 -68 -10 l-63 -5 -24 42 c-13 24 -30 62 -38 84 l-13 41 6 -40 c3 -22 17 -59 30 -82 14 -24 23 -43 21 -43 -2 0 -18 5 -35 11 l-30 10 -1 244 -1 243 26 6 c15 4 28 6 29 4 2 -2 11 -71 20 -153 8 -83 22 -176 30 -207 16 -62 48 -132 66 -143 5 -4 -1 16 -15 44 -33 64 -52 146 -65 283 -6 58 -13 125 -17 147 -6 39 -5 41 20 41 14 0 26 -6 26 -12z m62 -113 c11 -169 25 -258 49 -316 16 -36 19 -53 11 -61 -8 -8 -17 -1 -32 23 -32 53 -49 123 -60 254 -5 66 -13 144 -16 173 -5 52 -5 53 18 50 22 -3 23 -7 30 -123z m40 103 c13 -11 17 -42 21 -163 3 -99 11 -168 22 -203 22 -71 27 -63 9 13 -8 33 -17 123 -20 200 l-7 140 22 -20 c46 -40 61 -95 60 -212 -1 -130 -16 -103 -18 32 -1 50 -6 97 -12 105 -13 19 -3 -176 12 -233 8 -32 7 -45 -9 -75 -10 -20 -25 -37 -32 -37 -19 0 -48 85 -59 177 -13 106 -20 288 -11 288 3 0 13 -6 22 -12z m-725 -80 c17 -8 22 -18 18 -36 -2 -13 -5 -26 -7 -27 -8 -8 -201 -65 -218 -65 -23 0 -26 22 -7 42 6 7 13 20 15 28 4 23 52 58 92 68 38 10 72 7 107 -10z m16 -124 c0 -39 0 -39 -35 -36 -19 2 -62 -3 -94 -12 -33 -8 -72 -16 -89 -18 -26 -3 -30 0 -30 21 0 22 7 26 60 37 33 7 85 22 115 33 30 10 59 18 64 17 5 -1 9 -20 9 -42z m138 -26 c12 -23 32 -80 46 -127 13 -47 33 -101 43 -118 l19 -33 -48 0 c-48 0 -50 1 -70 43 -18 36 -21 62 -21 160 0 64 2 117 5 117 2 0 14 -19 26 -42z m-139 -113 c2 -47 2 -85 2 -85 -1 0 -22 20 -46 45 l-45 45 -82 0 c-79 0 -81 1 -81 24 0 21 7 25 73 39 39 8 95 15 124 16 l52 1 3 -85z m-83 -19 c32 -17 75 -70 83 -103 5 -18 0 -24 -29 -34 -28 -9 -37 -8 -51 4 -9 9 -46 29 -81 46 -69 32 -81 44 -81 79 0 21 4 22 65 22 38 0 78 -6 94 -14z m-54 -111 c59 -34 54 -48 -8 -21 -32 13 -78 56 -61 56 5 0 36 -16 69 -35z m275 -27 c0 -5 -7 -8 -15 -8 -10 0 -15 10 -15 27 0 26 1 26 15 7 8 -10 15 -22 15 -26z"/> <path d="M575 1129 c-44 -16 -71 -29 -59 -29 22 0 122 32 151 49 32 18 -7 10 -92 -20z"/> <path d="M575 1365 c-63 -63 18 -160 88 -105 35 28 37 77 4 108 -30 29 -62 28 -92 -3z m87 -31 c8 -18 9 -30 1 -42 -13 -22 -56 -27 -72 -8 -11 12 -6 17 28 27 23 7 39 14 37 17 -3 2 -21 -1 -41 -8 -43 -14 -51 -10 -35 19 16 32 67 29 82 -5z"/> <path d="M1450 542 c-23 -7 -60 -44 -60 -59 0 -20 10 -16 32 12 23 30 67 33 91 7 30 -33 15 -86 -27 -94 -30 -5 -32 -28 -3 -28 34 0 49 -22 45 -67 -2 -30 -8 -39 -29 -47 -38 -13 -74 -1 -89 31 l-14 28 -4 -25 c-9 -53 89 -82 139 -41 32 26 33 95 2 121 -21 17 -21 17 -2 33 22 20 25 73 5 100 -15 20 -63 36 -86 29z"/> <path d="M469 511 c-28 -28 -29 -33 -29 -121 0 -88 1 -93 29 -121 23 -23 38 -29 71 -29 52 0 76 13 95 50 20 38 19 40 -8 40 -14 0 -26 -9 -32 -22 -8 -18 -18 -23 -50 -23 -49 0 -65 25 -65 105 0 80 16 105 65 105 32 0 42 -5 50 -22 6 -14 18 -23 32 -23 32 0 29 25 -6 61 -24 24 -38 29 -76 29 -38 0 -52 -5 -76 -29z"/> <path d="M755 528 c-3 -7 -22 -62 -44 -123 -22 -60 -44 -122 -50 -137 -10 -26 -9 -28 13 -28 18 0 27 8 35 30 10 29 12 30 70 30 57 0 59 -1 70 -30 7 -22 16 -30 34 -30 24 0 24 0 -31 150 -44 121 -59 150 -74 150 -10 0 -21 -6 -23 -12z m51 -123 l20 -65 -46 0 -46 0 20 65 c12 35 23 65 26 65 3 0 14 -30 26 -65z"/> <path d="M1140 390 l0 -152 80 4 c67 3 83 7 102 26 21 20 23 32 23 122 0 90 -2 102 -23 122 -19 19 -35 23 -102 26 l-80 4 0 -152z m144 97 c34 -25 34 -158 0 -192 -9 -9 -33 -15 -60 -15 l-44 0 0 110 0 110 43 0 c24 0 51 -6 61 -13z"/> <path d="M930 350 c0 -103 1 -110 20 -110 18 0 20 7 20 78 0 80 9 102 41 102 36 0 49 -28 49 -106 0 -67 2 -74 20 -74 18 0 20 7 20 85 0 78 -2 88 -25 110 -26 27 -46 31 -75 15 -12 -7 -28 -7 -44 0 l-26 10 0 -110z"/> </g> </svg> 